<svg id="visual" viewBox="0 0 960 540" width="960" height="540" xmlns="http://www.w3.org/2000/svg" xmlns:xlink="http://www.w3.org/1999/xlink" version="1.1"><path d="M0 397L22.8 395.7C45.7 394.3 91.3 391.7 137 380.2C182.7 368.7 228.3 348.3 274 347.2C319.7 346 365.3 364 411.2 365.3C457 366.7 503 351.3 548.8 354.8C594.7 358.3 640.3 380.7 686 384.7C731.7 388.7 777.3 374.3 823 364C868.7 353.7 914.3 347.3 937.2 344.2L960 341L960 541L937.2 541C914.3 541 868.7 541 823 541C777.3 541 731.7 541 686 541C640.3 541 594.7 541 548.8 541C503 541 457 541 411.2 541C365.3 541 319.7 541 274 541C228.3 541 182.7 541 137 541C91.3 541 45.7 541 22.8 541L0 541Z" fill="#300091"></path><path d="M0 427L22.8 423C45.7 419 91.3 411 137 404.8C182.7 398.7 228.3 394.3 274 397.8C319.7 401.3 365.3 412.7 411.2 408C457 403.3 503 382.7 548.8 378.7C594.7 374.7 640.3 387.3 686 399C731.7 410.7 777.3 421.3 823 421.2C868.7 421 914.3 410 937.2 404.5L960 399L960 541L937.2 541C914.3 541 868.7 541 823 541C777.3 541 731.7 541 686 541C640.3 541 594.7 541 548.8 541C503 541 457 541 411.2 541C365.3 541 319.7 541 274 541C228.3 541 182.7 541 137 541C91.3 541 45.7 541 22.8 541L0 541Z" fill="#2b0376"></path><path d="M0 405L22.8 413.3C45.7 421.7 91.3 438.3 137 442.3C182.7 446.3 228.3 437.7 274 434C319.7 430.3 365.3 431.7 411.2 426.2C457 420.7 503 408.3 548.8 406.2C594.7 404 640.3 412 686 413.7C731.7 415.3 777.3 410.7 823 407.3C868.7 404 914.3 402 937.2 401L960 400L960 541L937.2 541C914.3 541 868.7 541 823 541C777.3 541 731.7 541 686 541C640.3 541 594.7 541 548.8 541C503 541 457 541 411.2 541C365.3 541 319.7 541 274 541C228.3 541 182.7 541 137 541C91.3 541 45.7 541 22.8 541L0 541Z" fill="#25055d"></path><path d="M0 451L22.8 448.5C45.7 446 91.3 441 137 442C182.7 443 228.3 450 274 455.5C319.7 461 365.3 465 411.2 467.3C457 469.7 503 470.3 548.8 465.8C594.7 461.3 640.3 451.7 686 448.8C731.7 446 777.3 450 823 452.3C868.7 454.7 914.3 455.3 937.2 455.7L960 456L960 541L937.2 541C914.3 541 868.7 541 823 541C777.3 541 731.7 541 686 541C640.3 541 594.7 541 548.8 541C503 541 457 541 411.2 541C365.3 541 319.7 541 274 541C228.3 541 182.7 541 137 541C91.3 541 45.7 541 22.8 541L0 541Z" fill="#1e0545"></path><path d="M0 482L22.8 482C45.7 482 91.3 482 137 483.8C182.7 485.7 228.3 489.3 274 489.7C319.7 490 365.3 487 411.2 483.7C457 480.3 503 476.7 548.8 479C594.7 481.3 640.3 489.7 686 495.5C731.7 501.3 777.3 504.7 823 502.8C868.7 501 914.3 494 937.2 490.5L960 487L960 541L937.2 541C914.3 541 868.7 541 823 541C777.3 541 731.7 541 686 541C640.3 541 594.7 541 548.8 541C503 541 457 541 411.2 541C365.3 541 319.7 541 274 541C228.3 541 182.7 541 137 541C91.3 541 45.7 541 22.8 541L0 541Z" fill="#18002f"></path></svg>